<svg width="1066" height="231" viewBox="0 0 1066 231" fill="none" xmlns="http://www.w3.org/2000/svg">
<g clip-path="url(#clip0_9_26)">
<path d="M356 79.36L326.98 151.12H306.08L276.95 79.36H298.8L317.06 128.65L335.21 79.36H356Z" fill="#808080"/>
<path d="M372.04 79.36H392.3V151.12H372.04V79.36Z" fill="#808080"/>
<path d="M480.32 96.56H454.89V151.12H434.63V96.56H409.2V79.36H480.33V96.56H480.32Z" fill="#808080"/>
<path d="M535.51 137.62H506.49L501.21 151.13H480.42L511.13 79.37H531.92L562.63 151.13H540.78L535.5 137.62H535.51ZM521.05 98.78L512.5 122.31H529.49L521.05 98.78Z" fill="#808080"/>
<path d="M642.63 133.92V151.12H578.57V79.36H598.83V133.92H642.63Z" fill="#808080"/>
<path d="M730.86 79.36V151.12H712.39L678.94 104.79V151.12H659.63V79.36H682.64L711.56 119.46V79.36H730.87H730.86Z" fill="#42CBFF"/>
<path d="M748.8 115.24C748.8 92.76 764.52 78.09 788.48 78.09C812.44 78.09 828.16 92.76 828.16 115.24C828.16 137.72 812.54 152.39 788.48 152.39C764.42 152.39 748.8 137.72 748.8 115.24ZM807.58 115.24C807.58 103.53 799.98 95.72 788.48 95.72C776.98 95.72 769.48 103.53 769.48 115.24C769.48 126.95 777.08 134.76 788.48 134.76C799.88 134.76 807.58 126.95 807.58 115.24Z" fill="#42CBFF"/>
<path d="M947.53 79.36L925.47 151.12H906.37L893.07 107.22L879.77 151.12H860.35L838.29 79.36H859.61L871.64 123.69L885.04 79.36H901.82L915.22 123.69L927.25 79.36H947.51H947.53Z" fill="#42CBFF"/>
<path d="M951.54 141.52C951.54 135.19 956.08 130.65 962.52 130.65C968.96 130.65 973.5 135.19 973.5 141.52C973.5 147.85 968.96 152.39 962.52 152.39C956.08 152.39 951.54 147.85 951.54 141.52Z" fill="#42CBFF"/>
<path d="M1022.92 142.12H1003.57L1000.05 151.13H986.19L1006.67 103.28H1020.53L1041.01 151.13H1026.45L1022.93 142.12H1022.92ZM1013.28 116.23L1007.58 131.92H1018.91L1013.28 116.23Z" fill="#42CBFF"/>
<path d="M1051.62 103.28H1065.13V151.13H1051.62V103.28Z" fill="#42CBFF"/>
<path d="M32.61 96.85C29.19 93.43 29.19 87.88 32.61 84.46C36.03 81.04 41.58 81.04 45 84.46C48.42 87.88 48.42 93.43 45 96.85C41.58 100.27 36.03 100.27 32.61 96.85ZM144.14 195.99C147.56 192.57 147.56 187.02 144.14 183.6C140.72 180.18 135.17 180.18 131.75 183.6C128.33 187.02 128.33 192.57 131.75 195.99C135.17 199.41 140.72 199.41 144.14 195.99ZM23.93 125.35C29.41 119.87 29.41 111 23.93 105.52C18.45 100.04 9.57999 100.04 4.09999 105.52C-1.38001 111 -1.38001 119.87 4.09999 125.35C9.57999 130.83 18.45 130.83 23.93 125.35ZM45 146.42C48.42 143 48.42 137.45 45 134.03C41.58 130.61 36.03 130.61 32.61 134.03C29.19 137.45 29.19 143 32.61 146.42C36.03 149.84 41.58 149.84 45 146.42ZM73.5 174.92C78.98 169.44 78.98 160.57 73.5 155.09C68.02 149.61 59.15 149.61 53.67 155.09C48.19 160.57 48.19 169.44 53.67 174.92C59.15 180.4 68.02 180.4 73.5 174.92ZM94.57 195.99C97.99 192.57 97.99 187.02 94.57 183.6C91.15 180.18 85.6 180.18 82.18 183.6C78.76 187.02 78.76 192.57 82.18 195.99C85.6 199.41 91.15 199.41 94.57 195.99ZM73.5 75.79C78.98 70.31 78.98 61.44 73.5 55.96C68.02 50.48 59.15 50.48 53.67 55.96C48.19 61.44 48.19 70.31 53.67 75.79C59.15 81.27 68.02 81.27 73.5 75.79ZM172.64 174.93C178.12 169.45 178.12 160.58 172.64 155.1C167.16 149.62 158.29 149.62 152.81 155.1C147.33 160.58 147.33 169.45 152.81 174.93C158.29 180.41 167.16 180.41 172.64 174.93ZM94.57 47.28C97.99 43.86 97.99 38.31 94.57 34.89C91.15 31.47 85.6 31.47 82.18 34.89C78.76 38.31 78.76 43.86 82.18 47.28C85.6 50.7 91.15 50.7 94.57 47.28ZM193.71 146.42C197.13 143 197.13 137.45 193.71 134.03C190.29 130.61 184.74 130.61 181.32 134.03C177.9 137.45 177.9 143 181.32 146.42C184.74 149.84 190.29 149.84 193.71 146.42ZM144.14 47.28C147.56 43.86 147.56 38.31 144.14 34.89C140.72 31.47 135.17 31.47 131.75 34.89C128.33 38.31 128.33 43.86 131.75 47.28C135.17 50.7 140.72 50.7 144.14 47.28ZM172.64 75.82C178.12 70.34 178.12 61.47 172.64 55.99C167.16 50.51 158.29 50.51 152.81 55.99C147.33 61.47 147.33 70.34 152.81 75.82C158.29 81.3 167.16 81.3 172.64 75.82ZM193.71 96.85C197.13 93.43 197.13 87.88 193.71 84.46C190.29 81.04 184.74 81.04 181.32 84.46C177.9 87.88 177.9 93.43 181.32 96.85C184.74 100.27 190.29 100.27 193.71 96.85ZM222.21 125.35C227.69 119.87 227.69 111 222.21 105.52C216.73 100.04 207.86 100.04 202.38 105.52C196.9 111 196.9 119.87 202.38 125.35C207.86 130.83 216.73 130.83 222.21 125.35ZM113.34 159.91C115.51 159.91 117.46 158.6 118.29 156.6L139.32 101.97L145.83 117.54C146.67 119.54 148.62 120.84 150.79 120.84H178.81C181.78 120.84 184.19 118.43 184.19 115.46C184.19 112.49 181.78 110.08 178.81 110.08H154.37L144.27 85.94C143.43 83.94 141.47 82.64 139.31 82.64C137.14 82.64 135.18 83.94 134.35 85.95L113.29 140.65L91.94 85.93C91.1 83.94 89.15 82.65 86.99 82.65H86.98C84.81 82.65 82.86 83.96 82.03 85.95L71.93 110.09H47.55C44.58 110.09 42.17 112.5 42.17 115.47C42.17 118.44 44.58 120.85 47.55 120.85H75.51C77.68 120.85 79.64 119.55 80.47 117.55L87.01 101.9L108.36 156.63C109.2 158.62 111.15 159.91 113.31 159.91H113.32H113.34ZM121.61 226.34C121.71 226.2 121.82 226.07 121.91 225.93C122 225.79 122.09 225.65 122.17 225.51C122.25 225.37 122.34 225.24 122.41 225.1C122.49 224.96 122.56 224.81 122.63 224.66C122.7 224.52 122.77 224.38 122.83 224.23C122.89 224.08 122.95 223.93 123.01 223.78C123.07 223.63 123.12 223.48 123.17 223.33C123.22 223.18 123.27 223.03 123.31 222.88C123.35 222.72 123.39 222.56 123.43 222.4C123.46 222.26 123.5 222.11 123.52 221.97C123.55 221.79 123.57 221.61 123.6 221.43C123.62 221.3 123.64 221.17 123.65 221.04C123.67 220.8 123.68 220.57 123.68 220.33C123.68 220.25 123.68 220.18 123.68 220.1C123.68 219.78 123.66 219.47 123.63 219.15C123.63 219.09 123.61 219.02 123.6 218.96C123.57 218.71 123.54 218.46 123.49 218.21C123.47 218.11 123.45 218.01 123.42 217.91C123.37 217.7 123.33 217.49 123.27 217.28C123.24 217.16 123.2 217.05 123.16 216.94C123.1 216.75 123.04 216.57 122.97 216.39C122.92 216.26 122.87 216.14 122.81 216.01C122.74 215.85 122.67 215.69 122.59 215.53C122.52 215.39 122.45 215.25 122.37 215.11C122.3 214.98 122.22 214.85 122.14 214.72C122.04 214.56 121.94 214.4 121.84 214.25C121.82 214.22 121.81 214.2 121.79 214.17C121.75 214.09 121.66 213.98 121.54 213.84C121.26 213.48 120.97 213.12 120.64 212.79C120.57 212.72 120.43 212.6 120.26 212.45C119.4 211.56 118.51 210.67 118.51 210.67C117.99 210.15 114.37 207.18 114.37 200.89V197.95C114.37 191.66 117.98 188.69 118.51 188.17C118.51 188.17 119.4 187.28 120.26 186.39C120.43 186.24 120.57 186.12 120.64 186.05C120.97 185.72 121.26 185.36 121.54 185C121.66 184.86 121.74 184.75 121.79 184.67C121.81 184.64 121.82 184.62 121.84 184.59C121.95 184.43 122.05 184.28 122.14 184.11C122.22 183.98 122.3 183.85 122.37 183.72C122.45 183.58 122.52 183.44 122.59 183.3C122.67 183.14 122.74 182.98 122.81 182.82C122.86 182.69 122.92 182.57 122.97 182.44C123.04 182.26 123.1 182.07 123.16 181.89C123.2 181.78 123.24 181.66 123.27 181.55C123.33 181.34 123.38 181.13 123.42 180.92C123.44 180.82 123.47 180.72 123.49 180.62C123.54 180.37 123.57 180.12 123.6 179.87C123.6 179.81 123.62 179.74 123.63 179.68C123.66 179.36 123.68 179.05 123.68 178.73C123.68 178.65 123.68 178.58 123.68 178.5C123.68 178.26 123.67 178.03 123.65 177.79C123.64 177.66 123.62 177.53 123.6 177.4C123.58 177.22 123.55 177.04 123.52 176.86C123.49 176.71 123.46 176.57 123.43 176.43C123.39 176.27 123.36 176.11 123.31 175.95C123.27 175.8 123.22 175.65 123.17 175.5C123.12 175.35 123.07 175.2 123.01 175.05C122.95 174.9 122.89 174.75 122.83 174.6C122.77 174.46 122.7 174.31 122.63 174.17C122.56 174.02 122.49 173.88 122.41 173.73C122.33 173.59 122.25 173.45 122.17 173.32C122.08 173.18 122 173.04 121.91 172.9C121.82 172.76 121.71 172.63 121.61 172.49C121.51 172.36 121.42 172.23 121.32 172.11C121.18 171.95 121.04 171.79 120.89 171.63C120.81 171.55 120.74 171.46 120.66 171.37C118.64 169.35 115.98 168.33 113.33 168.33C110.68 168.33 108.02 169.34 106 171.37C105.92 171.45 105.85 171.54 105.77 171.63C105.62 171.79 105.48 171.94 105.34 172.11C105.24 172.23 105.15 172.36 105.05 172.49C104.95 172.63 104.84 172.76 104.75 172.9C104.66 173.04 104.57 173.18 104.49 173.32C104.41 173.46 104.32 173.59 104.25 173.73C104.17 173.87 104.1 174.02 104.03 174.17C103.96 174.31 103.89 174.45 103.83 174.6C103.77 174.75 103.71 174.9 103.65 175.05C103.59 175.2 103.54 175.35 103.49 175.5C103.44 175.65 103.39 175.8 103.35 175.95C103.31 176.11 103.27 176.27 103.23 176.43C103.2 176.57 103.16 176.72 103.14 176.86C103.11 177.04 103.09 177.22 103.06 177.4C103.04 177.53 103.02 177.66 103.01 177.79C102.99 178.03 102.98 178.26 102.98 178.5C102.98 178.58 102.98 178.65 102.98 178.73C102.98 179.05 103 179.36 103.03 179.68C103.03 179.74 103.05 179.81 103.06 179.87C103.09 180.12 103.12 180.37 103.17 180.62C103.19 180.72 103.21 180.82 103.24 180.92C103.29 181.13 103.33 181.34 103.39 181.55C103.42 181.67 103.46 181.78 103.5 181.89C103.56 182.08 103.62 182.26 103.69 182.44C103.74 182.57 103.79 182.69 103.85 182.82C103.92 182.98 103.99 183.14 104.07 183.3C104.14 183.44 104.21 183.58 104.29 183.72C104.36 183.85 104.44 183.98 104.52 184.11C104.62 184.27 104.72 184.43 104.82 184.59C104.84 184.62 104.85 184.64 104.87 184.67C104.91 184.75 105 184.86 105.12 185C105.4 185.36 105.69 185.72 106.02 186.05C106.09 186.12 106.23 186.24 106.4 186.39C107.26 187.28 108.15 188.17 108.15 188.17C108.67 188.69 112.29 191.66 112.29 197.95V200.89C112.29 207.18 108.68 210.15 108.15 210.67C108.15 210.67 107.26 211.56 106.4 212.45C106.23 212.6 106.09 212.72 106.02 212.79C105.69 213.12 105.4 213.48 105.12 213.84C105 213.98 104.92 214.09 104.87 214.17C104.85 214.2 104.84 214.22 104.82 214.25C104.71 214.41 104.61 214.57 104.52 214.73C104.44 214.86 104.36 214.99 104.29 215.12C104.21 215.26 104.14 215.4 104.07 215.54C103.99 215.7 103.92 215.86 103.85 216.02C103.8 216.15 103.74 216.27 103.69 216.4C103.62 216.58 103.56 216.77 103.5 216.95C103.46 217.06 103.42 217.18 103.39 217.29C103.33 217.5 103.28 217.71 103.24 217.92C103.22 218.02 103.19 218.12 103.17 218.22C103.12 218.47 103.09 218.72 103.06 218.97C103.06 219.03 103.04 219.1 103.03 219.16C103 219.48 102.98 219.79 102.98 220.11C102.98 220.19 102.98 220.26 102.98 220.34C102.98 220.58 102.99 220.81 103.01 221.05C103.02 221.18 103.04 221.31 103.06 221.44C103.08 221.62 103.1 221.8 103.14 221.98C103.17 222.13 103.2 222.27 103.23 222.41C103.27 222.57 103.3 222.73 103.35 222.89C103.39 223.04 103.44 223.19 103.49 223.34C103.54 223.49 103.59 223.64 103.65 223.79C103.71 223.94 103.77 224.09 103.83 224.24C103.89 224.38 103.96 224.53 104.03 224.67C104.1 224.82 104.17 224.96 104.25 225.11C104.33 225.25 104.41 225.39 104.49 225.52C104.58 225.66 104.66 225.8 104.75 225.94C104.84 226.08 104.95 226.21 105.05 226.35C105.15 226.48 105.24 226.61 105.34 226.73C105.47 226.89 105.62 227.05 105.77 227.2C105.85 227.29 105.92 227.38 106 227.46C108.02 229.48 110.68 230.5 113.33 230.5C115.98 230.5 118.64 229.49 120.66 227.46C120.74 227.38 120.81 227.29 120.89 227.2C121.04 227.04 121.18 226.89 121.32 226.73C121.42 226.61 121.51 226.48 121.61 226.35V226.34ZM121.47 83.88C121.57 83.74 121.68 83.61 121.77 83.47C121.86 83.33 121.95 83.19 122.03 83.05C122.11 82.91 122.2 82.78 122.27 82.64C122.35 82.5 122.42 82.35 122.49 82.2C122.56 82.06 122.63 81.92 122.69 81.77C122.75 81.62 122.81 81.47 122.87 81.32C122.93 81.17 122.98 81.02 123.03 80.87C123.08 80.72 123.13 80.57 123.17 80.42C123.21 80.26 123.25 80.1 123.29 79.94C123.32 79.8 123.36 79.65 123.38 79.51C123.41 79.33 123.43 79.15 123.46 78.97C123.48 78.84 123.5 78.71 123.51 78.58C123.53 78.34 123.54 78.11 123.54 77.87C123.54 77.79 123.54 77.72 123.54 77.64C123.54 77.32 123.52 77.01 123.49 76.69C123.49 76.63 123.47 76.56 123.46 76.5C123.43 76.25 123.4 76 123.35 75.75C123.33 75.65 123.31 75.55 123.28 75.45C123.23 75.24 123.19 75.03 123.13 74.82C123.1 74.7 123.06 74.59 123.02 74.48C122.96 74.29 122.9 74.11 122.83 73.93C122.78 73.8 122.73 73.68 122.67 73.55C122.6 73.39 122.53 73.23 122.45 73.07C122.38 72.93 122.31 72.79 122.23 72.65C122.16 72.52 122.08 72.39 122 72.26C121.9 72.1 121.8 71.94 121.7 71.79C121.68 71.76 121.67 71.74 121.65 71.71C121.61 71.63 121.52 71.52 121.4 71.38C121.12 71.02 120.83 70.66 120.5 70.33C120.43 70.26 120.29 70.14 120.12 69.99C119.26 69.1 118.37 68.21 118.37 68.21C117.85 67.69 114.24 64.73 114.24 58.44C114.24 53.63 116.64 50.77 117.77 49.69C119.48 48.39 120.59 46.33 120.59 44.01C120.59 41.69 119.48 39.63 117.77 38.33C116.64 37.25 114.24 34.39 114.25 29.58C114.25 23.29 117.86 20.33 118.38 19.81C118.38 19.81 119.27 18.92 120.13 18.03C120.3 17.88 120.44 17.76 120.51 17.69C120.84 17.36 121.13 17 121.41 16.64C121.53 16.5 121.61 16.39 121.66 16.31C121.68 16.28 121.69 16.26 121.71 16.23C121.82 16.07 121.92 15.92 122.01 15.76C122.09 15.63 122.17 15.5 122.24 15.37C122.32 15.23 122.39 15.09 122.46 14.95C122.54 14.79 122.61 14.63 122.68 14.47C122.73 14.34 122.79 14.22 122.84 14.09C122.91 13.91 122.97 13.72 123.03 13.54C123.07 13.43 123.11 13.31 123.14 13.2C123.2 12.99 123.25 12.78 123.29 12.57C123.31 12.47 123.34 12.37 123.36 12.27C123.41 12.02 123.44 11.77 123.47 11.52C123.47 11.46 123.49 11.39 123.5 11.33C123.53 11.01 123.55 10.7 123.55 10.38C123.55 10.3 123.55 10.23 123.55 10.15C123.55 9.91 123.54 9.68 123.52 9.44C123.51 9.31 123.49 9.18 123.47 9.05C123.45 8.87 123.43 8.69 123.39 8.51C123.36 8.36 123.33 8.22 123.3 8.08C123.26 7.92 123.23 7.76 123.18 7.6C123.14 7.45 123.09 7.3 123.04 7.15C122.99 7 122.94 6.85 122.88 6.7C122.82 6.55 122.76 6.4 122.7 6.25C122.64 6.11 122.57 5.96 122.5 5.82C122.43 5.67 122.36 5.53 122.28 5.38C122.2 5.24 122.12 5.1 122.04 4.97C121.95 4.83 121.87 4.69 121.78 4.55C121.69 4.41 121.58 4.28 121.48 4.14C121.38 4.01 121.29 3.88 121.19 3.76C121.06 3.6 120.91 3.45 120.77 3.29C120.69 3.2 120.62 3.11 120.53 3.03C118.49 1.01 115.84 0 113.19 0C110.54 0 107.89 1.01 105.87 3.03C105.79 3.11 105.71 3.21 105.63 3.29C105.49 3.44 105.34 3.6 105.21 3.76C105.11 3.88 105.02 4.01 104.92 4.14C104.82 4.28 104.71 4.41 104.62 4.55C104.53 4.69 104.44 4.83 104.36 4.97C104.28 5.11 104.19 5.24 104.12 5.38C104.04 5.52 103.97 5.67 103.9 5.82C103.83 5.96 103.76 6.1 103.7 6.24C103.64 6.39 103.58 6.54 103.52 6.69C103.46 6.84 103.41 6.99 103.36 7.14C103.31 7.29 103.26 7.44 103.22 7.59C103.18 7.75 103.14 7.91 103.1 8.07C103.07 8.21 103.03 8.36 103.01 8.5C102.98 8.68 102.96 8.86 102.93 9.04C102.91 9.17 102.89 9.3 102.88 9.43C102.86 9.67 102.85 9.9 102.85 10.14C102.85 10.22 102.85 10.29 102.85 10.37C102.85 10.69 102.87 11 102.9 11.32C102.9 11.38 102.92 11.45 102.93 11.51C102.96 11.76 102.99 12.01 103.04 12.26C103.06 12.36 103.08 12.46 103.11 12.56C103.16 12.77 103.2 12.98 103.26 13.19C103.29 13.31 103.33 13.42 103.37 13.53C103.43 13.72 103.49 13.9 103.56 14.08C103.61 14.21 103.66 14.33 103.72 14.46C103.79 14.62 103.86 14.78 103.94 14.94C104.01 15.08 104.08 15.22 104.16 15.36C104.23 15.49 104.31 15.62 104.39 15.75C104.49 15.91 104.59 16.07 104.69 16.22C104.71 16.25 104.72 16.27 104.74 16.3C104.78 16.38 104.87 16.49 104.99 16.63C105.27 16.99 105.56 17.35 105.89 17.68C105.96 17.75 106.1 17.87 106.27 18.02C107.13 18.91 108.02 19.8 108.02 19.8C108.54 20.32 112.15 23.28 112.15 29.57C112.15 34.38 109.75 37.24 108.63 38.32C106.92 39.62 105.81 41.68 105.81 44C105.81 46.32 106.92 48.38 108.63 49.68C109.76 50.76 112.16 53.62 112.16 58.43C112.16 64.72 108.55 67.68 108.03 68.2C108.03 68.2 107.14 69.09 106.28 69.98C106.11 70.13 105.97 70.25 105.9 70.32C105.57 70.65 105.28 71.01 105 71.37C104.88 71.51 104.8 71.62 104.75 71.7C104.73 71.73 104.72 71.75 104.7 71.78C104.59 71.94 104.49 72.09 104.4 72.25C104.32 72.38 104.24 72.51 104.17 72.64C104.09 72.78 104.02 72.92 103.95 73.06C103.87 73.22 103.8 73.38 103.73 73.54C103.68 73.67 103.62 73.79 103.57 73.92C103.5 74.1 103.44 74.29 103.38 74.47C103.34 74.58 103.3 74.7 103.27 74.81C103.21 75.02 103.16 75.23 103.12 75.44C103.1 75.54 103.07 75.64 103.05 75.74C103 75.99 102.97 76.24 102.94 76.49C102.94 76.55 102.92 76.62 102.91 76.68C102.88 77 102.86 77.31 102.86 77.63C102.86 77.71 102.86 77.78 102.86 77.86C102.86 78.1 102.87 78.33 102.89 78.57C102.9 78.7 102.92 78.83 102.94 78.96C102.96 79.14 102.98 79.32 103.02 79.5C103.05 79.65 103.08 79.79 103.11 79.93C103.15 80.09 103.18 80.25 103.23 80.41C103.27 80.56 103.32 80.71 103.37 80.86C103.42 81.01 103.47 81.16 103.53 81.31C103.59 81.46 103.65 81.61 103.71 81.76C103.77 81.9 103.84 82.04 103.91 82.19C103.98 82.34 104.05 82.48 104.13 82.63C104.21 82.77 104.29 82.9 104.37 83.04C104.46 83.18 104.54 83.32 104.63 83.46C104.72 83.6 104.83 83.73 104.93 83.87C105.03 84 105.12 84.13 105.22 84.25C105.35 84.41 105.5 84.56 105.64 84.72C105.72 84.81 105.79 84.9 105.88 84.98C107.9 87 110.55 88.01 113.2 88.01C115.85 88.01 118.5 87 120.52 84.98C120.6 84.9 120.68 84.8 120.76 84.72C120.9 84.57 121.05 84.41 121.18 84.25C121.28 84.13 121.37 84 121.47 83.87V83.88Z" fill="url(#paint0_linear_9_26)"/>
</g>
<defs>
<linearGradient id="paint0_linear_9_26" x1="-9.76597e-06" y1="115.24" x2="226.32" y2="115.24" gradientUnits="userSpaceOnUse">
<stop stop-color="#A1FFFF"/>
<stop offset="1" stop-color="#42CBFF"/>
</linearGradient>
<clipPath id="clip0_9_26">
<rect width="1065.13" height="230.49" fill="white"/>
</clipPath>
</defs>
</svg>
