<?xml version="1.0" encoding="UTF-8"?>
<svg id="Layer_1" data-name="Layer 1" xmlns="http://www.w3.org/2000/svg" xmlns:xlink="http://www.w3.org/1999/xlink" viewBox="0 0 1065.13 230.49">
  <defs>
    <style>
      .cls-1 {
        fill: url(#linear-gradient);
      }

      .cls-2 {
        fill: #fff;
      }

      .cls-3 {
        fill: #42cbff;
      }
    </style>
    <linearGradient id="linear-gradient" x1="0" y1="115.24" x2="226.32" y2="115.24" gradientUnits="userSpaceOnUse">
      <stop offset="0" stop-color="#a1ffff"/>
      <stop offset="1" stop-color="#42cbff"/>
    </linearGradient>
  </defs>
  <g>
    <path class="cls-2" d="M356,79.36l-29.02,71.76h-20.9l-29.13-71.76h21.85l18.26,49.29,18.15-49.29h20.79Z"/>
    <path class="cls-2" d="M372.04,79.36h20.26v71.76h-20.26V79.36Z"/>
    <path class="cls-2" d="M480.32,96.56h-25.43v54.56h-20.26v-54.56h-25.43v-17.2h71.13v17.2Z"/>
    <path class="cls-2" d="M535.51,137.62h-29.02l-5.28,13.51h-20.79l30.71-71.76h20.79l30.71,71.76h-21.85l-5.28-13.51Zm-14.46-38.84l-8.55,23.53h16.99l-8.44-23.53Z"/>
    <path class="cls-2" d="M642.63,133.92v17.2h-64.06V79.36h20.26v54.56h43.8Z"/>
    <path class="cls-3" d="M730.86,79.36v71.76h-18.47l-33.45-46.33v46.33h-19.31V79.36h23.01l28.92,40.1v-40.1h19.31Z"/>
    <path class="cls-3" d="M748.8,115.24c0-22.48,15.72-37.15,39.68-37.15s39.68,14.67,39.68,37.15-15.62,37.15-39.68,37.15-39.68-14.67-39.68-37.15Zm58.78,0c0-11.71-7.6-19.52-19.1-19.52s-19,7.81-19,19.52,7.6,19.52,19,19.52,19.1-7.81,19.1-19.52Z"/>
    <path class="cls-3" d="M947.53,79.36l-22.06,71.76h-19.1l-13.3-43.9-13.3,43.9h-19.42l-22.06-71.76h21.32l12.03,44.33,13.4-44.33h16.78l13.4,44.33,12.03-44.33h20.26Z"/>
    <path class="cls-3" d="M951.54,141.52c0-6.33,4.54-10.87,10.98-10.87s10.98,4.54,10.98,10.87-4.54,10.87-10.98,10.87-10.98-4.54-10.98-10.87Z"/>
    <path class="cls-3" d="M1022.92,142.12h-19.35l-3.52,9.01h-13.86l20.48-47.85h13.86l20.48,47.85h-14.56l-3.52-9.01Zm-9.64-25.89l-5.7,15.69h11.33l-5.63-15.69Z"/>
    <path class="cls-3" d="M1051.62,103.28h13.51v47.85h-13.51v-47.85Z"/>
  </g>
  <path class="cls-1" d="M32.61,96.85h0c-3.42-3.42-3.42-8.97,0-12.39h0c3.42-3.42,8.97-3.42,12.39,0h0c3.42,3.42,3.42,8.97,0,12.39h0c-3.42,3.42-8.97,3.42-12.39,0Zm111.53,99.14h0c3.42-3.42,3.42-8.97,0-12.39h0c-3.42-3.42-8.97-3.42-12.39,0h0c-3.42,3.42-3.42,8.97,0,12.39h0c3.42,3.42,8.97,3.42,12.39,0ZM23.93,125.35h0c5.48-5.48,5.48-14.35,0-19.83h0c-5.48-5.48-14.35-5.48-19.83,0h0c-5.48,5.48-5.48,14.35,0,19.83h0c5.48,5.48,14.35,5.48,19.83,0Zm21.07,21.07h0c3.42-3.42,3.42-8.97,0-12.39h0c-3.42-3.42-8.97-3.42-12.39,0h0c-3.42,3.42-3.42,8.97,0,12.39h0c3.42,3.42,8.97,3.42,12.39,0Zm28.5,28.5h0c5.48-5.48,5.48-14.35,0-19.83h0c-5.48-5.48-14.35-5.48-19.83,0h0c-5.48,5.48-5.48,14.35,0,19.83h0c5.48,5.48,14.35,5.48,19.83,0Zm21.07,21.07h0c3.42-3.42,3.42-8.97,0-12.39h0c-3.42-3.42-8.97-3.42-12.39,0h0c-3.42,3.42-3.42,8.97,0,12.39h0c3.42,3.42,8.97,3.42,12.39,0Zm-21.07-120.2h0c5.48-5.48,5.48-14.35,0-19.83h0c-5.48-5.48-14.35-5.48-19.83,0h0c-5.48,5.48-5.48,14.35,0,19.83h0c5.48,5.48,14.35,5.48,19.83,0Zm99.14,99.14h0c5.48-5.48,5.48-14.35,0-19.83h0c-5.48-5.48-14.35-5.48-19.83,0h0c-5.48,5.48-5.48,14.35,0,19.83h0c5.48,5.48,14.35,5.48,19.83,0ZM94.57,47.28h0c3.42-3.42,3.42-8.97,0-12.39h0c-3.42-3.42-8.97-3.42-12.39,0h0c-3.42,3.42-3.42,8.97,0,12.39h0c3.42,3.42,8.97,3.42,12.39,0Zm99.14,99.14h0c3.42-3.42,3.42-8.97,0-12.39h0c-3.42-3.42-8.97-3.42-12.39,0h0c-3.42,3.42-3.42,8.97,0,12.39h0c3.42,3.42,8.97,3.42,12.39,0Zm-49.57-99.14h0c3.42-3.42,3.42-8.97,0-12.39h0c-3.42-3.42-8.97-3.42-12.39,0h0c-3.42,3.42-3.42,8.97,0,12.39h0c3.42,3.42,8.97,3.42,12.39,0Zm28.5,28.54h0c5.48-5.48,5.48-14.35,0-19.83h0c-5.48-5.48-14.35-5.48-19.83,0h0c-5.48,5.48-5.48,14.35,0,19.83h0c5.48,5.48,14.35,5.48,19.83,0Zm21.07,21.03h0c3.42-3.42,3.42-8.97,0-12.39h0c-3.42-3.42-8.97-3.42-12.39,0h0c-3.42,3.42-3.42,8.97,0,12.39h0c3.42,3.42,8.97,3.42,12.39,0Zm28.5,28.5h0c5.48-5.48,5.48-14.35,0-19.83h0c-5.48-5.48-14.35-5.48-19.83,0h0c-5.48,5.48-5.48,14.35,0,19.83h0c5.48,5.48,14.35,5.48,19.83,0Zm-108.87,34.56c2.17,0,4.12-1.31,4.95-3.31l21.03-54.63,6.51,15.57c.84,2,2.79,3.3,4.96,3.3h28.02c2.97,0,5.38-2.41,5.38-5.38s-2.41-5.38-5.38-5.38h-24.44l-10.1-24.14c-.84-2-2.8-3.3-4.96-3.3-2.17,0-4.13,1.3-4.96,3.31l-21.06,54.7-21.35-54.72c-.84-1.99-2.79-3.28-4.95-3.28h-.01c-2.17,0-4.12,1.31-4.95,3.3l-10.1,24.14h-24.38c-2.97,0-5.38,2.41-5.38,5.38s2.41,5.38,5.38,5.38h27.96c2.17,0,4.13-1.3,4.96-3.3l6.54-15.65,21.35,54.73c.84,1.99,2.79,3.28,4.95,3.28h.01Zm8.27,66.43c.1-.14,.21-.27,.3-.41,.09-.14,.18-.28,.26-.42,.08-.14,.17-.27,.24-.41,.08-.14,.15-.29,.22-.44,.07-.14,.14-.28,.2-.43,.06-.15,.12-.3,.18-.45,.06-.15,.11-.3,.16-.45,.05-.15,.1-.3,.14-.45,.04-.16,.08-.32,.12-.48,.03-.14,.07-.29,.09-.43,.03-.18,.05-.36,.08-.54,.02-.13,.04-.26,.05-.39,.02-.24,.03-.47,.03-.71,0-.08,0-.15,0-.23,0-.32-.02-.63-.05-.95,0-.06-.02-.13-.03-.19-.03-.25-.06-.5-.11-.75-.02-.1-.04-.2-.07-.3-.05-.21-.09-.42-.15-.63-.03-.12-.07-.23-.11-.34-.06-.19-.12-.37-.19-.55-.05-.13-.1-.25-.16-.38-.07-.16-.14-.32-.22-.48-.07-.14-.14-.28-.22-.42-.07-.13-.15-.26-.23-.39-.1-.16-.2-.32-.3-.47-.02-.03-.03-.05-.05-.08-.04-.08-.13-.19-.25-.33-.28-.36-.57-.72-.9-1.05-.07-.07-.21-.19-.38-.34-.86-.89-1.75-1.78-1.75-1.78-.52-.52-4.14-3.49-4.14-9.78h0v-2.94h0c0-6.29,3.61-9.26,4.14-9.78,0,0,.89-.89,1.75-1.78,.17-.15,.31-.27,.38-.34,.33-.33,.62-.69,.9-1.05,.12-.14,.2-.25,.25-.33,.02-.03,.03-.05,.05-.08,.11-.16,.21-.31,.3-.48,.08-.13,.16-.26,.23-.39,.08-.14,.15-.28,.22-.42,.08-.16,.15-.32,.22-.48,.05-.13,.11-.25,.16-.38,.07-.18,.13-.37,.19-.55,.04-.11,.08-.23,.11-.34,.06-.21,.11-.42,.15-.63,.02-.1,.05-.2,.07-.3,.05-.25,.08-.5,.11-.75,0-.06,.02-.13,.03-.19,.03-.32,.05-.63,.05-.95,0-.08,0-.15,0-.23,0-.24-.01-.47-.03-.71-.01-.13-.03-.26-.05-.39-.02-.18-.05-.36-.08-.54-.03-.15-.06-.29-.09-.43-.04-.16-.07-.32-.12-.48-.04-.15-.09-.3-.14-.45-.05-.15-.1-.3-.16-.45-.06-.15-.12-.3-.18-.45-.06-.14-.13-.29-.2-.43-.07-.15-.14-.29-.22-.44-.08-.14-.16-.28-.24-.41-.09-.14-.17-.28-.26-.42-.09-.14-.2-.27-.3-.41-.1-.13-.19-.26-.29-.38-.14-.16-.28-.32-.43-.48-.08-.08-.15-.17-.23-.26-2.02-2.02-4.68-3.04-7.33-3.04-2.65,0-5.31,1.01-7.33,3.04-.08,.08-.15,.17-.23,.26-.15,.16-.29,.31-.43,.48-.1,.12-.19,.25-.29,.38-.1,.14-.21,.27-.3,.41-.09,.14-.18,.28-.26,.42-.08,.14-.17,.27-.24,.41-.08,.14-.15,.29-.22,.44-.07,.14-.14,.28-.2,.43-.06,.15-.12,.3-.18,.45-.06,.15-.11,.3-.16,.45-.05,.15-.1,.3-.14,.45-.04,.16-.08,.32-.12,.48-.03,.14-.07,.29-.09,.43-.03,.18-.05,.36-.08,.54-.02,.13-.04,.26-.05,.39-.02,.24-.03,.47-.03,.71,0,.08,0,.15,0,.23,0,.32,.02,.63,.05,.95,0,.06,.02,.13,.03,.19,.03,.25,.06,.5,.11,.75,.02,.1,.04,.2,.07,.3,.05,.21,.09,.42,.15,.63,.03,.12,.07,.23,.11,.34,.06,.19,.12,.37,.19,.55,.05,.13,.1,.25,.16,.38,.07,.16,.14,.32,.22,.48,.07,.14,.14,.28,.22,.42,.07,.13,.15,.26,.23,.39,.1,.16,.2,.32,.3,.48,.02,.03,.03,.05,.05,.08,.04,.08,.13,.19,.25,.33,.28,.36,.57,.72,.9,1.05,.07,.07,.21,.19,.38,.34,.86,.89,1.75,1.78,1.75,1.78,.52,.52,4.14,3.49,4.14,9.78h0v2.94h0c0,6.29-3.61,9.26-4.14,9.78,0,0-.89,.89-1.75,1.78-.17,.15-.31,.27-.38,.34-.33,.33-.62,.69-.9,1.05-.12,.14-.2,.25-.25,.33-.02,.03-.03,.05-.05,.08-.11,.16-.21,.32-.3,.48-.08,.13-.16,.26-.23,.39-.08,.14-.15,.28-.22,.42-.08,.16-.15,.32-.22,.48-.05,.13-.11,.25-.16,.38-.07,.18-.13,.37-.19,.55-.04,.11-.08,.23-.11,.34-.06,.21-.11,.42-.15,.63-.02,.1-.05,.2-.07,.3-.05,.25-.08,.5-.11,.75,0,.06-.02,.13-.03,.19-.03,.32-.05,.63-.05,.95,0,.08,0,.15,0,.23,0,.24,.01,.47,.03,.71,.01,.13,.03,.26,.05,.39,.02,.18,.04,.36,.08,.54,.03,.15,.06,.29,.09,.43,.04,.16,.07,.32,.12,.48,.04,.15,.09,.3,.14,.45,.05,.15,.1,.3,.16,.45,.06,.15,.12,.3,.18,.45,.06,.14,.13,.29,.2,.43,.07,.15,.14,.29,.22,.44,.08,.14,.16,.28,.24,.41,.09,.14,.17,.28,.26,.42,.09,.14,.2,.27,.3,.41,.1,.13,.19,.26,.29,.38,.13,.16,.28,.32,.43,.47,.08,.09,.15,.18,.23,.26,2.02,2.02,4.68,3.04,7.33,3.04,2.65,0,5.31-1.01,7.33-3.04,.08-.08,.15-.17,.23-.26,.15-.16,.29-.31,.43-.47,.1-.12,.19-.25,.29-.38Zm-.14-142.46c.1-.14,.21-.27,.3-.41,.09-.14,.18-.28,.26-.42,.08-.14,.17-.27,.24-.41,.08-.14,.15-.29,.22-.44,.07-.14,.14-.28,.2-.43,.06-.15,.12-.3,.18-.45,.06-.15,.11-.3,.16-.45,.05-.15,.1-.3,.14-.45,.04-.16,.08-.32,.12-.48,.03-.14,.07-.29,.09-.43,.03-.18,.05-.36,.08-.54,.02-.13,.04-.26,.05-.39,.02-.24,.03-.47,.03-.71,0-.08,0-.15,0-.23,0-.32-.02-.63-.05-.95,0-.06-.02-.13-.03-.19-.03-.25-.06-.5-.11-.75-.02-.1-.04-.2-.07-.3-.05-.21-.09-.42-.15-.63-.03-.12-.07-.23-.11-.34-.06-.19-.12-.37-.19-.55-.05-.13-.1-.25-.16-.38-.07-.16-.14-.32-.22-.48-.07-.14-.14-.28-.22-.42-.07-.13-.15-.26-.23-.39-.1-.16-.2-.32-.3-.47-.02-.03-.03-.05-.05-.08-.04-.08-.13-.19-.25-.33-.28-.36-.57-.72-.9-1.05-.07-.07-.21-.19-.38-.34-.86-.89-1.75-1.78-1.75-1.78-.52-.52-4.13-3.48-4.13-9.77h0c0-4.81,2.4-7.67,3.53-8.75,1.71-1.3,2.82-3.36,2.82-5.68,0,0,0,0,0,0s0,0,0,0c0-2.32-1.11-4.38-2.82-5.68-1.13-1.08-3.53-3.94-3.52-8.75h0c0-6.29,3.61-9.25,4.13-9.77,0,0,.89-.89,1.75-1.78,.17-.15,.31-.27,.38-.34,.33-.33,.62-.69,.9-1.05,.12-.14,.2-.25,.25-.33,.02-.03,.03-.05,.05-.08,.11-.16,.21-.31,.3-.47,.08-.13,.16-.26,.23-.39,.08-.14,.15-.28,.22-.42,.08-.16,.15-.32,.22-.48,.05-.13,.11-.25,.16-.38,.07-.18,.13-.37,.19-.55,.04-.11,.08-.23,.11-.34,.06-.21,.11-.42,.15-.63,.02-.1,.05-.2,.07-.3,.05-.25,.08-.5,.11-.75,0-.06,.02-.13,.03-.19,.03-.32,.05-.63,.05-.95,0-.08,0-.15,0-.23,0-.24-.01-.47-.03-.71-.01-.13-.03-.26-.05-.39-.02-.18-.04-.36-.08-.54-.03-.15-.06-.29-.09-.43-.04-.16-.07-.32-.12-.48-.04-.15-.09-.3-.14-.45-.05-.15-.1-.3-.16-.45-.06-.15-.12-.3-.18-.45-.06-.14-.13-.29-.2-.43-.07-.15-.14-.29-.22-.44-.08-.14-.16-.28-.24-.41-.09-.14-.17-.28-.26-.42-.09-.14-.2-.27-.3-.41-.1-.13-.19-.26-.29-.38-.13-.16-.28-.31-.42-.47-.08-.09-.15-.18-.24-.26C118.49,1.01,115.84,0,113.19,0c-2.65,0-5.3,1.01-7.32,3.03-.08,.08-.16,.18-.24,.26-.14,.15-.29,.31-.42,.47-.1,.12-.19,.25-.29,.38-.1,.14-.21,.27-.3,.41-.09,.14-.18,.28-.26,.42-.08,.14-.17,.27-.24,.41-.08,.14-.15,.29-.22,.44-.07,.14-.14,.28-.2,.42-.06,.15-.12,.3-.18,.45-.06,.15-.11,.3-.16,.45-.05,.15-.1,.3-.14,.45-.04,.16-.08,.32-.12,.48-.03,.14-.07,.29-.09,.43-.03,.18-.05,.36-.08,.54-.02,.13-.04,.26-.05,.39-.02,.24-.03,.47-.03,.71,0,.08,0,.15,0,.23,0,.32,.02,.63,.05,.95,0,.06,.02,.13,.03,.19,.03,.25,.06,.5,.11,.75,.02,.1,.04,.2,.07,.3,.05,.21,.09,.42,.15,.63,.03,.12,.07,.23,.11,.34,.06,.19,.12,.37,.19,.55,.05,.13,.1,.25,.16,.38,.07,.16,.14,.32,.22,.48,.07,.14,.14,.28,.22,.42,.07,.13,.15,.26,.23,.39,.1,.16,.2,.32,.3,.47,.02,.03,.03,.05,.05,.08,.04,.08,.13,.19,.25,.33,.28,.36,.57,.72,.9,1.05,.07,.07,.21,.19,.38,.34,.86,.89,1.75,1.78,1.75,1.78,.52,.52,4.13,3.48,4.13,9.77h0c0,4.81-2.4,7.67-3.52,8.75-1.71,1.3-2.82,3.36-2.82,5.68,0,0,0,0,0,0s0,0,0,0c0,2.32,1.11,4.38,2.82,5.68,1.13,1.08,3.53,3.94,3.53,8.75h0c0,6.29-3.61,9.25-4.13,9.77,0,0-.89,.89-1.75,1.78-.17,.15-.31,.27-.38,.34-.33,.33-.62,.69-.9,1.05-.12,.14-.2,.25-.25,.33-.02,.03-.03,.05-.05,.08-.11,.16-.21,.31-.3,.47-.08,.13-.16,.26-.23,.39-.08,.14-.15,.28-.22,.42-.08,.16-.15,.32-.22,.48-.05,.13-.11,.25-.16,.38-.07,.18-.13,.37-.19,.55-.04,.11-.08,.23-.11,.34-.06,.21-.11,.42-.15,.63-.02,.1-.05,.2-.07,.3-.05,.25-.08,.5-.11,.75,0,.06-.02,.13-.03,.19-.03,.32-.05,.63-.05,.95,0,.08,0,.15,0,.23,0,.24,.01,.47,.03,.71,.01,.13,.03,.26,.05,.39,.02,.18,.04,.36,.08,.54,.03,.15,.06,.29,.09,.43,.04,.16,.07,.32,.12,.48,.04,.15,.09,.3,.14,.45,.05,.15,.1,.3,.16,.45,.06,.15,.12,.3,.18,.45,.06,.14,.13,.28,.2,.43,.07,.15,.14,.29,.22,.44,.08,.14,.16,.27,.24,.41,.09,.14,.17,.28,.26,.42,.09,.14,.2,.27,.3,.41,.1,.13,.19,.26,.29,.38,.13,.16,.28,.31,.42,.47,.08,.09,.15,.18,.24,.26,2.02,2.02,4.67,3.03,7.32,3.03,2.65,0,5.3-1.01,7.32-3.03,.08-.08,.16-.18,.24-.26,.14-.15,.29-.31,.42-.47,.1-.12,.19-.25,.29-.38Z"/>
</svg>