<svg width="3324" height="1014" viewBox="0 0 3324 1014" fill="none" xmlns="http://www.w3.org/2000/svg">
<path fill-rule="evenodd" clip-rule="evenodd" d="M143.315 371.21C128.275 386.25 128.275 410.63 143.315 425.67C158.355 440.71 182.735 440.71 197.775 425.67C212.815 410.63 212.815 386.25 197.775 371.21C182.735 356.17 158.355 356.17 143.315 371.21ZM105.185 463.8C129.245 487.86 129.245 526.88 105.185 550.94C81.125 575 42.105 575 18.045 550.94C-6.015 526.88 -6.015 487.86 18.045 463.8C42.105 439.74 81.125 439.74 105.185 463.8ZM197.775 589.07C212.815 604.11 212.815 628.49 197.775 643.53C182.735 658.57 158.355 658.57 143.315 643.53C128.275 628.49 128.275 604.11 143.315 589.07C158.355 574.03 182.735 574.03 197.775 589.07ZM323.045 681.66C347.105 705.72 347.105 744.74 323.045 768.8C298.985 792.86 259.965 792.86 235.905 768.8C211.845 744.74 211.845 705.72 235.905 681.66C259.965 657.6 298.985 657.6 323.045 681.66ZM415.635 806.93C430.675 821.97 430.675 846.35 415.635 861.39C400.595 876.43 376.215 876.43 361.175 861.39C346.135 846.35 346.135 821.97 361.175 806.93C376.215 791.89 400.595 791.89 415.635 806.93ZM323.045 245.96C347.105 270.02 347.105 309.04 323.045 333.1C298.985 357.16 259.965 357.16 235.905 333.1C211.845 309.04 211.845 270.02 235.905 245.96C259.965 221.9 298.985 221.9 323.045 245.96ZM415.635 153.36C430.675 168.4 430.675 192.78 415.635 207.82C400.595 222.86 376.215 222.86 361.175 207.82C346.135 192.78 346.135 168.4 361.175 153.36C376.215 138.32 400.595 138.32 415.635 153.36ZM851.345 589.07C866.385 604.11 866.385 628.49 851.345 643.53C836.305 658.57 811.925 658.57 796.885 643.53C781.845 628.49 781.845 604.11 796.885 589.07C811.925 574.03 836.305 574.03 851.345 589.07ZM633.495 153.36C648.535 168.4 648.535 192.78 633.495 207.82C618.455 222.86 594.075 222.86 579.035 207.82C563.995 192.78 563.995 168.4 579.035 153.36C594.075 138.32 618.455 138.32 633.495 153.36ZM758.765 246.11C782.825 270.17 782.825 309.19 758.765 333.25C734.705 357.31 695.685 357.31 671.625 333.25C647.565 309.19 647.565 270.17 671.625 246.11C695.685 222.05 734.705 222.05 758.765 246.11ZM851.355 371.21C866.395 386.25 866.395 410.63 851.355 425.67C836.315 440.71 811.935 440.71 796.895 425.67C781.855 410.63 781.855 386.25 796.895 371.21C811.935 356.17 836.315 356.17 851.355 371.21ZM976.625 463.8C1000.68 487.86 1000.68 526.88 976.625 550.94C952.565 575 913.545 575 889.485 550.94C865.425 526.88 865.425 487.86 889.485 463.8C913.545 439.74 952.565 439.74 976.625 463.8ZM519.915 688.29C516.245 697.07 507.665 702.8 498.145 702.82L498.155 702.83H498.105C488.605 702.83 480.025 697.15 476.325 688.4L382.495 447.87L353.735 516.63C350.055 525.42 341.445 531.15 331.915 531.15H209.035C195.975 531.15 185.385 520.56 185.385 507.5C185.385 494.44 195.975 483.85 209.035 483.85H316.175L360.545 377.76C364.225 368.98 372.795 363.26 382.315 363.24H382.365C391.865 363.24 400.445 368.92 404.145 377.67L497.955 618.17L590.525 377.77C594.205 368.97 602.805 363.24 612.345 363.24C621.885 363.24 630.485 368.96 634.165 377.76L678.535 483.85H785.955C799.015 483.85 809.605 494.44 809.605 507.5C809.605 520.56 799.015 531.15 785.955 531.15H662.795C653.255 531.15 644.655 525.43 640.975 516.63L612.355 448.2L519.915 688.29ZM535.185 366.88C534.765 367.49 534.315 368.08 533.865 368.67L533.855 368.61C533.74 368.764 533.625 368.92 533.511 369.075C533.211 369.482 532.911 369.889 532.585 370.28C532.059 370.924 531.484 371.535 530.911 372.143L530.735 372.33C530.578 372.496 530.427 372.669 530.277 372.841C530.085 373.061 529.893 373.282 529.685 373.49C520.795 382.38 509.145 386.82 497.495 386.82C485.845 386.82 474.195 382.38 465.305 373.49C465.097 373.282 464.905 373.061 464.713 372.841C464.624 372.739 464.535 372.637 464.445 372.537C464.383 372.467 464.319 372.398 464.255 372.33C464.142 372.207 464.028 372.085 463.914 371.963C463.396 371.408 462.881 370.854 462.405 370.28C462.089 369.894 461.797 369.497 461.506 369.101L461.376 368.925C461.296 368.816 461.216 368.708 461.135 368.6C461.032 368.461 460.927 368.323 460.823 368.184C460.482 367.732 460.138 367.276 459.825 366.81C459.504 366.333 459.214 365.856 458.921 365.374C458.872 365.293 458.822 365.211 458.772 365.129C458.74 365.076 458.708 365.023 458.675 364.97C458.305 364.37 457.935 363.77 457.605 363.16C457.295 362.592 457.015 362.024 456.733 361.45L456.625 361.23C456.315 360.61 456.025 359.99 455.755 359.36C455.465 358.7 455.205 358.05 454.955 357.38C454.705 356.73 454.475 356.07 454.265 355.41C454.055 354.76 453.845 354.1 453.665 353.44C453.475 352.74 453.315 352.04 453.155 351.33C453.14 351.261 453.125 351.192 453.109 351.123L453.06 350.9C452.95 350.406 452.84 349.916 452.755 349.42C452.615 348.641 452.515 347.851 452.415 347.062C452.404 346.971 452.392 346.88 452.38 346.789C452.367 346.689 452.354 346.59 452.341 346.49C452.289 346.11 452.238 345.73 452.205 345.35C452.115 344.32 452.085 343.28 452.065 342.24C452.061 342.102 452.054 341.965 452.046 341.83C452.036 341.632 452.025 341.436 452.025 341.24C452.025 339.85 452.095 338.46 452.225 337.07C452.239 336.94 452.259 336.808 452.278 336.674C452.285 336.625 452.292 336.576 452.299 336.526C452.305 336.48 452.312 336.434 452.317 336.388C452.324 336.339 452.33 336.289 452.335 336.24C452.465 335.13 452.615 334.03 452.815 332.94C452.873 332.622 452.947 332.305 453.021 331.99C453.049 331.871 453.078 331.749 453.105 331.63C453.305 330.71 453.515 329.79 453.775 328.88C453.882 328.523 453.999 328.162 454.116 327.802C454.162 327.658 454.209 327.513 454.255 327.37C454.515 326.56 454.795 325.74 455.105 324.94C455.325 324.38 455.555 323.83 455.795 323.28C456.105 322.56 456.425 321.86 456.775 321.16C457.085 320.54 457.405 319.93 457.735 319.32C458.055 318.75 458.395 318.18 458.735 317.62C459.165 316.92 459.595 316.22 460.065 315.54C460.145 315.43 460.205 315.3 460.285 315.19C460.475 314.86 460.855 314.36 461.365 313.75C462.575 312.15 463.865 310.59 465.315 309.12C465.625 308.81 466.225 308.27 466.985 307.62C469.965 304.521 473.048 301.432 474.208 300.27C474.514 299.964 474.685 299.792 474.685 299.79C474.831 299.644 475.035 299.453 475.284 299.219C478.946 295.778 492.845 282.716 492.845 256.85C492.855 235.71 482.305 223.13 477.355 218.38C469.825 212.66 464.955 203.61 464.955 193.42V193.4V193.38C464.955 183.19 469.825 174.15 477.355 168.42C482.305 163.68 492.845 151.1 492.845 129.95C492.854 104.088 478.951 91.0262 475.286 87.5825C475.035 87.347 474.831 87.1556 474.684 87.0091C474.524 86.8506 470.681 83.0324 466.985 79.18C466.225 78.53 465.625 77.99 465.315 77.68C463.865 76.21 462.575 74.65 461.365 73.05C460.865 72.44 460.485 71.94 460.285 71.61C460.245 71.555 460.21 71.495 460.175 71.435C460.158 71.4062 460.141 71.3773 460.124 71.349C460.105 71.3185 460.086 71.2886 460.065 71.26C459.595 70.58 459.165 69.88 458.735 69.18C458.395 68.62 458.055 68.06 457.735 67.48C457.395 66.87 457.075 66.26 456.775 65.64C456.425 64.94 456.105 64.23 455.795 63.52C455.555 62.97 455.325 62.42 455.105 61.86C454.795 61.06 454.515 60.25 454.255 59.43C454.085 58.93 453.915 58.43 453.775 57.92C453.515 57.01 453.305 56.09 453.105 55.17C453.066 54.9803 453.021 54.7903 452.977 54.6028C452.919 54.3568 452.86 54.1087 452.815 53.86C452.605 52.76 452.455 51.66 452.335 50.56C452.321 50.43 452.302 50.2978 452.282 50.1643C452.262 50.0205 452.241 49.8752 452.225 49.73C452.095 48.34 452.025 46.95 452.025 45.56C452.025 45.3887 452.035 45.2194 452.045 45.0519C452.055 44.8873 452.065 44.7234 452.065 44.56C452.085 43.52 452.115 42.48 452.205 41.45C452.238 41.0699 452.289 40.6898 452.341 40.3097C452.366 40.1198 452.392 39.9277 452.415 39.7378C452.515 38.9492 452.615 38.1586 452.755 37.38C452.84 36.8837 452.95 36.3929 453.06 35.8993C453.079 35.8142 453.098 35.729 453.117 35.6437C453.13 35.5859 453.142 35.528 453.155 35.47C453.305 34.77 453.475 34.06 453.665 33.36C453.829 32.7583 454.018 32.1648 454.209 31.5646L454.265 31.39C454.485 30.73 454.705 30.07 454.955 29.42C455.205 28.75 455.475 28.1 455.755 27.44C456.035 26.81 456.325 26.19 456.625 25.57C456.935 24.92 457.255 24.28 457.605 23.64C457.851 23.1986 458.113 22.7677 458.375 22.336C458.475 22.171 458.576 22.0059 458.675 21.84C459.045 21.22 459.415 20.6 459.825 20C460.245 19.39 460.695 18.8 461.145 18.21C461.261 18.0558 461.375 17.9008 461.489 17.746C461.789 17.3384 462.089 16.9313 462.415 16.54C462.898 15.9587 463.415 15.4042 463.932 14.8491C464.046 14.7262 464.161 14.6033 464.275 14.48C464.409 14.3341 464.539 14.1853 464.669 14.0363C464.878 13.7973 465.087 13.558 465.315 13.33C474.205 4.44 485.855 0 497.505 0C509.155 0 520.805 4.44 529.695 13.33C529.923 13.558 530.133 13.7986 530.342 14.0377C530.471 14.186 530.601 14.3348 530.735 14.48C530.87 14.626 531.006 14.7716 531.143 14.9171C531.641 15.4496 532.14 15.9825 532.595 16.54C532.921 16.9314 533.221 17.3386 533.521 17.7463L533.53 17.7582C533.641 17.909 533.752 18.0599 533.865 18.21C533.961 18.3374 534.057 18.4644 534.152 18.5912C534.508 19.0615 534.862 19.5295 535.185 20.01C535.553 20.548 535.888 21.1021 536.22 21.6507L536.335 21.84C536.705 22.44 537.065 23.04 537.405 23.65C537.715 24.2176 537.994 24.7853 538.277 25.3599L538.385 25.58C538.685 26.2 538.985 26.82 539.255 27.45C539.535 28.1 539.795 28.76 540.045 29.42C540.295 30.07 540.525 30.73 540.735 31.39C540.945 32.05 541.155 32.71 541.335 33.37C541.525 34.07 541.685 34.77 541.845 35.48L541.868 35.5783C542.01 36.1846 542.151 36.7828 542.255 37.39C542.395 38.18 542.495 38.97 542.595 39.76C542.61 39.8827 542.626 40.0054 542.642 40.128C542.651 40.1952 542.66 40.2623 542.669 40.3294C542.721 40.7096 542.772 41.0898 542.805 41.47C542.905 42.51 542.935 43.55 542.955 44.59C542.959 44.7219 542.966 44.8572 542.974 44.9891C542.984 45.1861 542.995 45.383 542.995 45.58C542.995 46.97 542.925 48.36 542.795 49.75C542.783 49.9181 542.758 50.0828 542.734 50.2461C542.716 50.3642 542.698 50.4826 542.685 50.6C542.555 51.7 542.405 52.8 542.205 53.89C542.147 54.2072 542.073 54.5225 541.999 54.8367C541.971 54.9573 541.943 55.0783 541.915 55.2C541.715 56.12 541.505 57.04 541.245 57.95C541.14 58.3064 541.026 58.6579 540.911 59.0079L540.834 59.2455C540.811 59.317 540.788 59.3885 540.765 59.46C540.505 60.28 540.225 61.1 539.915 61.9C539.695 62.45 539.465 63.01 539.225 63.56C538.915 64.27 538.595 64.97 538.245 65.67C537.945 66.29 537.625 66.9 537.295 67.51C536.975 68.09 536.645 68.66 536.295 69.22C535.865 69.92 535.435 70.62 534.965 71.3C534.925 71.355 534.89 71.415 534.855 71.475C534.835 71.5099 534.814 71.5448 534.793 71.5787C534.778 71.6031 534.762 71.627 534.745 71.65C534.555 71.98 534.175 72.48 533.665 73.09C532.455 74.69 531.165 76.25 529.715 77.72C529.405 78.03 528.805 78.57 528.045 79.22C525.065 82.3189 521.981 85.4083 520.822 86.5703C520.516 86.8763 520.345 87.0479 520.345 87.05C520.198 87.1962 519.996 87.3862 519.746 87.621C516.084 91.0624 502.185 104.124 502.185 129.99C502.185 151.13 512.725 163.71 517.675 168.46C525.205 174.18 530.075 183.23 530.075 193.42V193.44V193.46C530.075 203.65 525.205 212.69 517.675 218.42C512.725 223.17 502.185 235.75 502.185 256.9C502.176 282.762 516.079 295.824 519.744 299.268L519.765 299.287C519.859 299.375 519.945 299.456 520.025 299.531C520.079 299.583 520.13 299.632 520.178 299.677C520.24 299.736 520.295 299.791 520.345 299.84C520.355 299.85 524.275 303.74 528.045 307.67C528.805 308.32 529.405 308.86 529.715 309.17C531.165 310.64 532.455 312.2 533.665 313.8C534.165 314.41 534.545 314.91 534.745 315.24C534.825 315.35 534.885 315.48 534.965 315.59C535.435 316.27 535.865 316.97 536.295 317.67C536.635 318.24 536.975 318.8 537.295 319.38C537.625 319.99 537.945 320.6 538.245 321.22C538.595 321.91 538.915 322.62 539.225 323.33C539.465 323.89 539.695 324.44 539.915 325C540.225 325.8 540.505 326.61 540.765 327.43C540.935 327.93 541.105 328.43 541.245 328.94C541.505 329.85 541.715 330.77 541.915 331.69C541.954 331.879 541.999 332.071 542.043 332.257C542.101 332.504 542.16 332.75 542.205 333C542.415 334.09 542.565 335.19 542.685 336.29C542.694 336.379 542.705 336.466 542.717 336.553C542.725 336.613 542.734 336.674 542.742 336.733C542.749 336.785 542.757 336.837 542.764 336.889C542.772 336.952 542.781 337.014 542.788 337.077C542.79 337.098 542.793 337.119 542.795 337.14C542.925 338.53 542.995 339.92 542.995 341.31C542.995 341.475 542.985 341.64 542.975 341.805C542.965 341.97 542.955 342.135 542.955 342.3C542.935 343.34 542.895 344.38 542.805 345.42C542.772 345.8 542.721 346.18 542.669 346.561C542.644 346.75 542.618 346.94 542.595 347.13C542.495 347.92 542.395 348.71 542.255 349.5C542.168 349.964 542.065 350.423 541.962 350.885C541.923 351.059 541.883 351.234 541.845 351.41C541.685 352.12 541.525 352.82 541.335 353.52C541.17 354.136 540.979 354.735 540.786 355.341L540.735 355.5C540.515 356.16 540.295 356.82 540.045 357.47C539.805 358.13 539.535 358.79 539.255 359.44C538.985 360.07 538.685 360.69 538.385 361.31C538.075 361.96 537.755 362.61 537.405 363.24C537.065 363.85 536.705 364.45 536.335 365.05C536.284 365.132 536.233 365.215 536.182 365.298C536.122 365.396 536.062 365.494 536.001 365.593C535.738 366.025 535.474 366.457 535.185 366.88Z" fill="url(#paint0_linear_16_13)"/>
<path d="M534.782 994.38C534.686 994.506 534.59 994.633 534.495 994.76L534.515 994.77C534.4 994.924 534.286 995.078 534.172 995.233C533.872 995.641 533.571 996.048 533.245 996.44C532.709 997.094 532.124 997.715 531.541 998.333L531.365 998.52C531.2 998.7 531.043 998.881 530.885 999.062C530.709 999.264 530.53 999.465 530.335 999.66C521.435 1008.56 509.765 1013.01 498.105 1013.01C486.435 1013.01 474.775 1008.56 465.875 999.66C465.666 999.451 465.476 999.232 465.287 999.014C465.141 998.847 464.997 998.681 464.845 998.52C464.73 998.396 464.615 998.273 464.5 998.149C463.974 997.585 463.449 997.023 462.965 996.44C462.639 996.048 462.339 995.641 462.038 995.233C461.925 995.079 461.811 994.924 461.695 994.77C461.603 994.647 461.511 994.524 461.418 994.4C461.065 993.93 460.708 993.453 460.375 992.97C460.008 992.432 459.673 991.879 459.341 991.331L459.225 991.14C458.855 990.54 458.495 989.94 458.155 989.33C457.845 988.762 457.566 988.195 457.283 987.62L457.175 987.4L457.066 987.171C456.803 986.62 456.542 986.073 456.305 985.52C456.015 984.86 455.755 984.2 455.505 983.54C455.255 982.89 455.025 982.23 454.815 981.57C454.605 980.91 454.395 980.25 454.215 979.59C454.025 978.88 453.865 978.18 453.705 977.47C453.555 976.83 453.405 976.2 453.295 975.56C453.155 974.771 453.055 973.981 452.955 973.192C452.932 973.002 452.906 972.81 452.881 972.62C452.829 972.24 452.778 971.86 452.745 971.48C452.645 970.44 452.615 969.4 452.595 968.36C452.591 968.222 452.584 968.085 452.576 967.95C452.566 967.752 452.555 967.556 452.555 967.36C452.555 965.97 452.625 964.58 452.755 963.19C452.766 963.03 452.791 962.87 452.815 962.71C452.834 962.59 452.852 962.47 452.865 962.35C452.995 961.25 453.145 960.15 453.345 959.06C453.405 958.73 453.482 958.4 453.559 958.07C453.584 957.96 453.61 957.85 453.635 957.74C453.835 956.82 454.045 955.9 454.305 954.99C454.455 954.48 454.625 953.98 454.785 953.48C455.045 952.66 455.325 951.85 455.635 951.04C455.855 950.48 456.085 949.92 456.325 949.37C456.635 948.66 456.955 947.95 457.305 947.25C457.615 946.63 457.935 946.02 458.265 945.41C458.585 944.84 458.925 944.27 459.265 943.71C459.685 943.01 460.125 942.31 460.595 941.62C460.63 941.568 460.661 941.516 460.691 941.464C460.731 941.397 460.77 941.332 460.815 941.27C461.015 940.94 461.395 940.44 461.905 939.83C463.125 938.22 464.415 936.66 465.865 935.19C466.175 934.88 466.775 934.35 467.535 933.69C470.523 930.583 473.605 927.495 474.765 926.333C475.072 926.025 475.245 925.852 475.245 925.85C475.395 925.7 475.602 925.505 475.858 925.264C479.544 921.792 493.425 908.72 493.425 882.86V869.92C493.434 844.064 479.55 830.991 475.86 827.518C475.603 827.276 475.395 827.08 475.245 826.93C475.245 826.928 475.081 826.763 474.787 826.469C473.644 825.324 470.544 822.216 467.545 819.09C466.775 818.44 466.175 817.9 465.865 817.59C464.405 816.12 463.125 814.55 461.905 812.95C461.395 812.34 461.025 811.84 460.825 811.51C460.79 811.458 460.759 811.406 460.729 811.354C460.689 811.287 460.65 811.222 460.605 811.16C460.135 810.48 459.695 809.78 459.265 809.07C458.915 808.51 458.585 807.94 458.265 807.37C457.925 806.76 457.615 806.15 457.305 805.53C456.955 804.83 456.635 804.12 456.325 803.41C456.085 802.85 455.855 802.3 455.635 801.74C455.325 800.93 455.045 800.12 454.785 799.3C454.615 798.8 454.445 798.3 454.305 797.79C454.045 796.88 453.835 795.96 453.635 795.04C453.596 794.851 453.552 794.663 453.508 794.474C453.449 794.223 453.391 793.971 453.345 793.72C453.135 792.63 452.985 791.53 452.865 790.43C452.845 790.244 452.816 790.059 452.791 789.873C452.777 789.779 452.765 789.684 452.755 789.59C452.625 788.2 452.555 786.81 452.555 785.42C452.555 785.249 452.565 785.08 452.575 784.913C452.585 784.747 452.595 784.584 452.595 784.42C452.615 783.38 452.655 782.34 452.745 781.3C452.778 780.92 452.829 780.54 452.881 780.16C452.906 779.97 452.932 779.78 452.955 779.59C453.055 778.801 453.155 778.009 453.295 777.22C453.382 776.756 453.485 776.297 453.588 775.836C453.627 775.661 453.667 775.486 453.705 775.31C453.855 774.6 454.025 773.89 454.215 773.19C454.381 772.574 454.572 771.974 454.764 771.369L454.815 771.21C455.035 770.55 455.255 769.89 455.505 769.24C455.755 768.57 456.025 767.91 456.305 767.26C456.575 766.62 456.875 766.001 457.174 765.381C457.484 764.731 457.805 764.09 458.155 763.45C458.495 762.84 458.855 762.24 459.225 761.64C459.337 761.46 459.448 761.278 459.559 761.097C459.822 760.665 460.086 760.232 460.375 759.81C460.698 759.329 461.052 758.861 461.408 758.39C461.504 758.264 461.6 758.137 461.695 758.01C461.811 757.856 461.925 757.701 462.039 757.546C462.339 757.139 462.639 756.731 462.965 756.34C463.429 755.774 463.935 755.233 464.442 754.693C464.58 754.545 464.718 754.398 464.855 754.25C464.986 754.108 465.112 753.963 465.238 753.818C465.44 753.585 465.643 753.352 465.865 753.13C474.765 744.23 486.435 739.78 498.095 739.78C509.765 739.78 521.425 744.23 530.325 753.13C530.527 753.332 530.71 753.543 530.894 753.755C531.037 753.921 531.181 754.088 531.335 754.25C531.975 754.94 532.635 755.62 533.225 756.34C533.559 756.748 533.865 757.161 534.172 757.576C534.279 757.721 534.386 757.865 534.495 758.01C534.945 758.61 535.395 759.2 535.815 759.81C536.225 760.41 536.585 761.02 536.965 761.64C537.335 762.24 537.695 762.84 538.035 763.45C538.346 764.018 538.625 764.586 538.907 765.161L539.015 765.38C539.315 766 539.615 766.63 539.885 767.26C540.175 767.92 540.435 768.58 540.685 769.24C540.935 769.89 541.155 770.55 541.375 771.21C541.585 771.87 541.795 772.53 541.975 773.19C542.165 773.9 542.325 774.6 542.485 775.31C542.635 775.94 542.785 776.58 542.895 777.22C543.035 778.009 543.135 778.798 543.234 779.587C543.258 779.777 543.284 779.97 543.309 780.16C543.361 780.54 543.412 780.92 543.445 781.3C543.545 782.34 543.575 783.38 543.595 784.42C543.599 784.552 543.606 784.684 543.613 784.816C543.624 785.014 543.635 785.212 543.635 785.41C543.635 786.8 543.565 788.19 543.435 789.58C543.424 789.74 543.399 789.9 543.375 790.06C543.356 790.18 543.338 790.3 543.325 790.42C543.195 791.53 543.045 792.63 542.845 793.72C542.765 794.16 542.655 794.59 542.555 795.03C542.355 795.95 542.145 796.87 541.885 797.78C541.778 798.136 541.661 798.497 541.545 798.855C541.498 799.001 541.451 799.146 541.405 799.29C541.145 800.11 540.865 800.92 540.555 801.73C540.335 802.29 540.105 802.85 539.865 803.4C539.555 804.11 539.235 804.82 538.885 805.52C538.575 806.14 538.255 806.75 537.925 807.36C537.605 807.94 537.265 808.51 536.925 809.07C536.505 809.78 536.065 810.47 535.595 811.16C535.56 811.212 535.529 811.265 535.499 811.316C535.459 811.383 535.42 811.448 535.375 811.51C535.185 811.84 534.805 812.34 534.295 812.95C533.075 814.56 531.785 816.12 530.335 817.59C530.015 817.9 529.425 818.43 528.655 819.09C525.656 822.216 522.556 825.323 521.413 826.469C521.119 826.763 520.955 826.928 520.955 826.93C520.805 827.08 520.598 827.275 520.342 827.516C516.656 830.988 502.775 844.06 502.775 869.92V882.86C502.766 908.716 516.65 921.789 520.34 925.262C520.597 925.504 520.805 925.7 520.955 925.85L520.967 925.861C521.202 926.095 525.009 929.879 528.665 933.69C529.425 934.34 530.025 934.88 530.335 935.19C531.795 936.66 533.075 938.23 534.295 939.83C534.805 940.44 535.185 940.94 535.385 941.27C535.437 941.341 535.48 941.421 535.526 941.498C535.551 941.54 535.577 941.581 535.605 941.62C536.075 942.31 536.505 943.01 536.935 943.71L537.095 943.978C537.381 944.457 537.665 944.931 537.935 945.42C538.265 946.03 538.585 946.64 538.885 947.26C539.235 947.96 539.555 948.67 539.865 949.38C540.105 949.93 540.335 950.48 540.555 951.04C540.865 951.85 541.145 952.66 541.405 953.48C541.575 953.98 541.745 954.48 541.885 954.99C542.145 955.9 542.355 956.82 542.555 957.74C542.594 957.93 542.639 958.119 542.683 958.307C542.741 958.554 542.8 958.8 542.845 959.05C543.055 960.15 543.205 961.25 543.325 962.35C543.34 962.49 543.36 962.63 543.38 962.77C543.4 962.91 543.42 963.05 543.435 963.19C543.565 964.58 543.635 965.97 543.635 967.36C543.635 967.69 543.595 968.02 543.595 968.35C543.575 969.39 543.535 970.43 543.445 971.47C543.395 972.04 543.305 972.61 543.235 973.18C543.135 973.97 543.035 974.76 542.895 975.55C542.808 976.014 542.705 976.473 542.602 976.934C542.563 977.109 542.523 977.284 542.485 977.46C542.335 978.17 542.165 978.88 541.975 979.58C541.809 980.196 541.619 980.796 541.425 981.402L541.375 981.56C541.155 982.22 540.935 982.88 540.685 983.53C540.435 984.2 540.165 984.86 539.885 985.51C539.615 986.15 539.315 986.77 539.015 987.39C538.705 988.04 538.385 988.68 538.035 989.32C537.705 989.93 537.335 990.53 536.965 991.13C536.853 991.31 536.745 991.486 536.635 991.667C536.371 992.099 536.104 992.537 535.815 992.96C535.492 993.441 535.138 993.909 534.782 994.38Z" fill="url(#paint1_linear_16_13)"/>
<path fill-rule="evenodd" clip-rule="evenodd" d="M758.755 768.81C782.815 744.75 782.815 705.73 758.755 681.67C734.695 657.61 695.675 657.61 671.615 681.67C647.555 705.73 647.555 744.75 671.615 768.81C695.675 792.87 734.695 792.87 758.755 768.81Z" fill="url(#paint2_linear_16_13)"/>
<path fill-rule="evenodd" clip-rule="evenodd" d="M633.485 806.92C648.525 821.96 648.525 846.34 633.485 861.38C618.445 876.42 594.065 876.42 579.025 861.38C563.985 846.34 563.985 821.96 579.025 806.92C594.065 791.88 618.445 791.88 633.485 806.92Z" fill="url(#paint3_linear_16_13)"/>
<path d="M1290.94 404.629C1293.78 404.629 1295.71 407.499 1294.65 410.128L1214.96 607.171C1214.35 608.682 1212.89 609.671 1211.26 609.671H1156.93C1155.3 609.671 1153.83 608.684 1153.22 607.176L1073.23 410.133C1072.17 407.503 1074.1 404.629 1076.94 404.629H1130.65C1132.32 404.629 1133.82 405.67 1134.4 407.239L1181.85 535.311C1183.14 538.796 1188.07 538.791 1189.35 535.304L1236.5 407.247C1237.08 405.674 1238.58 404.629 1240.26 404.629H1290.94Z" fill="#939393"/>
<path d="M1342.7 408.629C1342.7 406.42 1344.5 404.629 1346.7 404.629H1396.59C1398.8 404.629 1400.59 406.42 1400.59 408.629V605.671C1400.59 607.88 1398.8 609.671 1396.59 609.671H1346.7C1344.5 609.671 1342.7 607.88 1342.7 605.671V408.629Z" fill="#939393"/>
<path d="M1652.1 453.775H1583.43C1581.23 453.775 1579.43 455.566 1579.43 457.775V605.671C1579.43 607.88 1577.64 609.671 1575.43 609.671H1525.54C1523.34 609.671 1521.54 607.88 1521.54 605.671V457.775C1521.54 455.566 1519.75 453.775 1517.54 453.775H1452.88C1450.67 453.775 1448.88 451.984 1448.88 449.775V408.629C1448.88 406.42 1450.67 404.629 1452.88 404.629H1648.12C1650.33 404.629 1652.12 406.42 1652.12 408.629V453.746C1652.12 453.762 1652.11 453.775 1652.1 453.775Z" fill="#939393"/>
<path d="M1809.79 571.097H1729.6C1727.96 571.097 1726.48 572.107 1725.88 573.641L1712.78 607.156C1712.18 608.69 1710.7 609.7 1709.05 609.7H1658.44C1655.57 609.7 1653.64 606.765 1654.77 604.126L1739.09 407.084C1739.72 405.612 1741.17 404.657 1742.77 404.657H1796.9C1798.5 404.657 1799.94 405.612 1800.57 407.084L1884.9 604.126C1886.03 606.765 1884.09 609.7 1881.22 609.7H1827.58C1825.93 609.7 1824.46 608.69 1823.86 607.156L1809.77 571.124C1809.77 571.111 1809.78 571.097 1809.79 571.097ZM1772.22 470.547C1770.95 467.022 1765.97 467.012 1764.69 470.532L1745.99 521.985C1745.05 524.594 1746.98 527.351 1749.75 527.351H1786.91C1789.68 527.351 1791.61 524.607 1790.67 522.001L1772.22 470.547Z" fill="#939393"/>
<path d="M2111.87 560.525C2114.08 560.525 2115.87 562.316 2115.87 564.525V605.671C2115.87 607.88 2114.08 609.671 2111.87 609.671H1936.83C1934.62 609.671 1932.83 607.88 1932.83 605.671V408.629C1932.83 406.42 1934.62 404.629 1936.83 404.629H1986.72C1988.93 404.629 1990.72 406.42 1990.72 408.629V556.525C1990.72 558.734 1992.51 560.525 1994.72 560.525H2111.87Z" fill="#939393"/>
<path d="M2368 404.629C2367.99 404.629 2367.97 404.642 2367.97 404.657V605.671C2367.97 607.88 2366.18 609.671 2363.97 609.671H2317.24C2315.96 609.671 2314.75 609.054 2314 608.013L2226.86 487.323C2224.59 484.176 2219.62 485.783 2219.62 489.664V605.671C2219.62 607.88 2217.83 609.671 2215.62 609.671H2168.44C2166.24 609.671 2164.44 607.88 2164.44 605.671V408.629C2164.44 406.42 2166.24 404.629 2168.44 404.629H2228.15C2229.43 404.629 2230.64 405.247 2231.39 406.289L2305.58 509.163C2307.85 512.312 2312.83 510.705 2312.83 506.823V408.629C2312.83 406.42 2314.62 404.629 2316.83 404.629H2368Z" fill="#42CBFF"/>
<path d="M2419.23 507.15C2419.23 442.917 2464.15 401 2532.61 401C2601.07 401 2645.99 442.917 2645.99 507.15C2645.99 571.383 2601.36 613.3 2532.61 613.3C2463.87 613.3 2419.23 571.383 2419.23 507.15ZM2587.19 507.15C2587.19 473.691 2565.47 451.375 2532.61 451.375C2499.75 451.375 2478.32 473.691 2478.32 507.15C2478.32 540.609 2500.04 562.925 2532.61 562.925C2565.19 562.925 2587.19 540.609 2587.19 507.15Z" fill="#42CBFF"/>
<path d="M2987.01 404.629C2987.04 404.629 2987.06 404.656 2987.05 404.684L2924.91 606.847C2924.39 608.525 2922.84 609.671 2921.08 609.671H2872.43C2870.67 609.671 2869.11 608.518 2868.6 606.831L2835.29 496.87C2834.14 493.083 2828.78 493.083 2827.63 496.87L2794.32 606.831C2793.81 608.518 2792.25 609.671 2790.49 609.671H2740.92C2739.17 609.671 2737.62 608.525 2737.1 606.847L2676.53 409.804C2675.74 407.232 2677.66 404.629 2680.35 404.629H2732.8C2734.6 404.629 2736.18 405.839 2736.66 407.581L2766.58 517.833C2767.63 521.711 2773.1 521.789 2774.26 517.942L2807.66 407.471C2808.17 405.784 2809.72 404.629 2811.49 404.629H2853.49C2855.26 404.629 2856.81 405.784 2857.32 407.471L2890.71 517.942C2891.88 521.789 2897.35 521.711 2898.4 517.833L2928.32 407.581C2928.8 405.839 2930.38 404.629 2932.18 404.629H2987.01Z" fill="#42CBFF"/>
<path d="M2998.53 582.241C2998.53 564.154 3011.5 551.182 3029.9 551.182C3048.3 551.182 3061.28 564.154 3061.28 582.241C3061.28 600.328 3048.3 613.3 3029.9 613.3C3011.5 613.3 2998.53 600.328 2998.53 582.241Z" fill="#42CBFF"/>
<path d="M3202.49 583.955H3149.93C3148.28 583.955 3146.8 584.965 3146.2 586.5L3138.13 607.155C3137.53 608.69 3136.05 609.7 3134.41 609.7H3103.6C3100.73 609.7 3098.79 606.765 3099.92 604.126L3155.02 475.402C3155.65 473.931 3157.09 472.976 3158.69 472.976H3193.02C3194.62 472.976 3196.07 473.931 3196.7 475.402L3251.79 604.126C3252.92 606.765 3250.98 609.7 3248.11 609.7H3215.3C3213.66 609.7 3212.18 608.69 3211.58 607.155L3202.53 583.982C3202.52 583.966 3202.5 583.955 3202.49 583.955ZM3178.68 520.406C3177.42 516.882 3172.44 516.872 3171.16 520.392L3160.6 549.445C3159.66 552.053 3161.59 554.81 3164.36 554.81H3185.34C3188.11 554.81 3190.04 552.065 3189.11 549.459L3178.68 520.406Z" fill="#42CBFF"/>
<path d="M3284.49 476.976C3284.49 474.767 3286.28 472.976 3288.49 472.976H3319.09C3321.3 472.976 3323.09 474.767 3323.09 476.976V605.7C3323.09 607.909 3321.3 609.7 3319.09 609.7H3288.49C3286.28 609.7 3284.49 607.909 3284.49 605.7V476.976Z" fill="#42CBFF"/>
<defs>
<linearGradient id="paint0_linear_16_13" x1="0.005" y1="506.5" x2="994.645" y2="506.5" gradientUnits="userSpaceOnUse">
<stop stop-color="#00FFFF"/>
<stop offset="1" stop-color="#42CBFF"/>
</linearGradient>
<linearGradient id="paint1_linear_16_13" x1="0.005" y1="506.5" x2="994.645" y2="506.5" gradientUnits="userSpaceOnUse">
<stop stop-color="#00FFFF"/>
<stop offset="1" stop-color="#42CBFF"/>
</linearGradient>
<linearGradient id="paint2_linear_16_13" x1="0.005" y1="506.5" x2="994.645" y2="506.5" gradientUnits="userSpaceOnUse">
<stop stop-color="#00FFFF"/>
<stop offset="1" stop-color="#42CBFF"/>
</linearGradient>
<linearGradient id="paint3_linear_16_13" x1="0.005" y1="506.5" x2="994.645" y2="506.5" gradientUnits="userSpaceOnUse">
<stop stop-color="#00FFFF"/>
<stop offset="1" stop-color="#42CBFF"/>
</linearGradient>
</defs>
</svg>
